# xmcd
#
# Track frame offsets: 
#        150
#        19865
#        36430
#        50555
#        70882
#        91352
#        113467
#        126807
#        145800
#        158897
#
# Disc length: 2297 seconds
#
# Revision: 1
# Processed by: cddbd v1.5.2PL0 Copyright (c) Steve Scherf et al.
# Submitted via: ExactAudioCopy v1.3
#
DISCID=8508f70a
DTITLE=羅時豐 - 豐動天下-1
DYEAR=1900
DGENRE=A Cappella
TTITLE0=茫茫到深更
TTITLE1=無情的電影票
TTITLE2=小姐請妳乎我愛
TTITLE3=放沒落心
TTITLE4=英雄難過美人關
TTITLE5=愛妳無後悔
TTITLE6=尚界秋趒
TTITLE7=夢中情
TTITLE8=細妹按靚
TTITLE9=椰子樹下
EXTD=
EXTT0=
EXTT1=
EXTT2=
EXTT3=
EXTT4=
EXTT5=
EXTT6=
EXTT7=
EXTT8=
EXTT9=
PLAYORDER=
